Coordinates
version=1
nRows=18
nColumns=22
inDegrees=yes

Units are S.I. units (second, meters, Newtons, ...)
If the header above contains a line with 'inDegrees', this indicates whether rotational values are in degrees (yes) or radians (no).

endheader
time	pelvis_tilt	pelvis_list	pelvis_rotation	pelvis_tx	pelvis_ty	pelvis_tz	hip_flexion_r	hip_adduction_r	hip_rotation_r	knee_angle_r	ankle_angle_r	subtalar_angle_r	hip_flexion_l	hip_adduction_l	hip_rotation_l	knee_angle_l	ankle_angle_l	subtalar_angle_l	lumbar_extension	lumbar_bending	lumbar_rotation
      0.01000000	     -0.24189610	     -4.18035762	     -3.38908390	     -1.31855673	      1.01340014	     -0.58063373	     -1.57448856	      3.19579178	     -6.19263160	     -8.59318755	      9.41175742	     -2.75077205	     -3.43677193	     -5.57587779	    -10.96147143	     -7.37294817	     11.52988470	     -1.34211081	     -4.30891519	      0.94335803	     -2.64890121
      0.02000000	     -0.24323954	     -4.18244440	     -3.39402478	     -1.31855626	      1.01340131	     -0.58059642	     -1.57253803	      3.20007222	     -6.19308898	     -8.59341313	      9.41023154	     -2.75193299	     -3.43718816	     -5.57905470	    -10.96194642	     -7.37043530	     11.53102642	     -1.34130684	     -4.31550979	      0.93712202	     -2.65422011
      0.03000000	     -0.23722967	     -4.18791892	     -3.39636230	     -1.31855893	      1.01341069	     -0.58056588	     -1.57009767	      3.20627539	     -6.18379568	     -8.61143626	      9.40149210	     -2.75872114	     -3.44719294	     -5.58541586	    -10.97283810	     -7.36381476	     11.53644288	     -1.33667046	     -4.33182213	      0.93701488	     -2.68417849
      0.04000000	     -0.23927385	     -4.19029891	     -3.40260795	     -1.31855912	      1.01341094	     -0.58052619	     -1.56804185	      3.21064105	     -6.18426870	     -8.61050541	      9.40119248	     -2.75962200	     -3.44706105	     -5.58916810	    -10.97390601	     -7.36183648	     11.53708804	     -1.33592453	     -4.33987165	      0.92992045	     -2.69023175
      0.05000000	     -0.23374504	     -4.19523750	     -3.40539209	     -1.31855869	      1.01342109	     -0.58049337	     -1.56633417	      3.21675170	     -6.17334359	     -8.62725799	      9.39733521	     -2.76489628	     -3.45711110	     -5.59534550	    -10.98589924	     -7.35571383	     11.53868749	     -1.33100230	     -4.35596732	      0.92781139	     -2.72329156
      0.06000000	     -0.23623982	     -4.19745000	     -3.41191509	     -1.31855781	      1.01341898	     -0.58045458	     -1.56360260	      3.22076551	     -6.17388398	     -8.62587685	      9.39734961	     -2.76552882	     -3.45822774	     -5.59947427	    -10.98657532	     -7.35349913	     11.53863478	     -1.33016282	     -4.36336197	      0.91979903	     -2.72981111
      0.07000000	     -0.23347370	     -4.20020790	     -3.41476091	     -1.31854919	      1.01342571	     -0.58042498	     -1.56122752	      3.22504069	     -6.16493585	     -8.63847081	      9.39497270	     -2.76950772	     -3.46962756	     -5.60254480	    -10.99557512	     -7.34013585	     11.53541753	     -1.32461970	     -4.37377612	      0.91577474	     -2.76228110
      0.08000000	     -0.23619731	     -4.20206217	     -3.42067214	     -1.31854984	      1.01342438	     -0.58039206	     -1.55823523	      3.22860629	     -6.16555939	     -8.63653636	      9.39511675	     -2.77018974	     -3.47159014	     -5.60597807	    -10.99632876	     -7.33595154	     11.53449588	     -1.32346719	     -4.37997562	      0.90778943	     -2.76951734
      0.09000000	     -0.23735993	     -4.20296480	     -3.42288093	     -1.31852589	      1.01342251	     -0.58037691	     -1.55571044	      3.23003338	     -6.15959390	     -8.64253667	      9.39414564	     -2.77417281	     -3.48487053	     -5.60588256	    -11.00520658	     -7.31177335	     11.52790747	     -1.31727417	     -4.38189775	      0.90370457	     -2.80180048
      0.10000000	     -0.24062023	     -4.20453437	     -3.42792065	     -1.31852322	      1.01341797	     -0.58035277	     -1.55323678	      3.23292585	     -6.16050861	     -8.64010011	      9.39447168	     -2.77471803	     -3.48640947	     -5.60847314	    -11.00581932	     -7.30685280	     11.52679952	     -1.31631339	     -4.38625257	      0.89648278	     -2.80772289
      0.11000000	     -0.24575858	     -4.20457721	     -3.43018880	     -1.31848643	      1.01341059	     -0.58034096	     -1.55011129	      3.23352107	     -6.15647700	     -8.64083527	      9.39471283	     -2.77812256	     -3.49944055	     -5.60673784	    -11.01572153	     -7.27601989	     11.52014672	     -1.31101994	     -4.37971336	      0.89245494	     -2.83821593
      0.12000000	     -0.24967948	     -4.20579998	     -3.43572147	     -1.31848696	      1.01340490	     -0.58032311	     -1.54749998	      3.23564156	     -6.15752050	     -8.63736744	      9.39516341	     -2.77870518	     -3.50052196	     -5.60823407	    -11.01630003	     -7.27008009	     11.51864456	     -1.31000333	     -4.38330065	      0.88675635	     -2.84382905
      0.13000000	     -0.25839324	     -4.20506878	     -3.43983593	     -1.31844224	      1.01339239	     -0.58031588	     -1.54383754	      3.23533512	     -6.15416386	     -8.63203676	      9.39528093	     -2.78197661	     -3.51155360	     -5.60501968	    -11.02592049	     -7.23702600	     11.51096256	     -1.30500794	     -4.37076849	      0.88372291	     -2.86970934
      0.14000000	     -0.26254773	     -4.20603471	     -3.44586212	     -1.31844358	      1.01338639	     -0.58030053	     -1.54110093	      3.23697195	     -6.15506317	     -8.62782342	      9.39540043	     -2.78245105	     -3.51166805	     -5.60627063	    -11.02614527	     -7.23227345	     11.50952582	     -1.30420583	     -4.37393508	      0.87892476	     -2.87365146
      0.15000000	     -0.27408695	     -4.20495151	     -3.45439064	     -1.31840129	      1.01337128	     -0.58028585	     -1.53680058	      3.23672683	     -6.15048073	     -8.61636257	      9.39305395	     -2.78521618	     -3.51753065	     -5.60326438	    -11.03530632	     -7.20473642	     11.50219357	     -1.30007764	     -4.35861889	      0.87564270	     -2.89060497
      0.16000000	     -0.27857986	     -4.20568283	     -3.46118752	     -1.31840273	      1.01336516	     -0.58027026	     -1.53387075	      3.23798744	     -6.15079118	     -8.61167351	      9.39271224	     -2.78557673	     -3.51641432	     -5.60425661	    -11.03559628	     -7.20153183	     11.50095429	     -1.29942819	     -4.36210790	      0.87178498	     -2.89279400
      0.17000000	     -0.30108568	     -4.20199657	     -3.48385519	     -1.31837698	      1.01333985	     -0.58022762	     -1.51813192	      3.23648845	     -6.12025343	     -8.59692871	      9.37911629	     -2.79257066	     -3.50640354	     -5.60020614	    -11.05349787	     -7.18460921	     11.48191429	     -1.28830877	     -4.33690688	      0.86374005	     -2.88263900
      0.18000000	     -0.30505432	     -4.20279401	     -3.49248500	     -1.31837388	      1.01333346	     -0.58021181	     -1.51615572	      3.23705607	     -6.12163734	     -8.59332166	      9.37965741	     -2.79272743	     -3.50516685	     -5.60136855	    -11.05420325	     -7.18339924	     11.48262466	     -1.28815954	     -4.34092949	      0.86146350	     -2.88505497
